<svg id="visual" viewBox="0 0 960 300" width="960" height="300" xmlns="http://www.w3.org/2000/svg" xmlns:xlink="http://www.w3.org/1999/xlink" version="1.1"><rect x="0" y="0" width="960" height="300" fill="#e44b42"></rect><path d="M0 101L160 97L320 101L480 79L640 110L800 86L960 121L960 0L800 0L640 0L480 0L320 0L160 0L0 0Z" fill="#d44242"></path><path d="M0 74L160 91L320 74L480 93L640 95L800 94L960 84L960 0L800 0L640 0L480 0L320 0L160 0L0 0Z" fill="#9d3336"></path><path d="M0 48L160 74L320 77L480 60L640 66L800 63L960 53L960 0L800 0L640 0L480 0L320 0L160 0L0 0Z" fill="#682528"></path><path d="M0 42L160 43L320 47L480 45L640 51L800 32L960 38L960 0L800 0L640 0L480 0L320 0L160 0L0 0Z" fill="#371719"></path><path d="M0 16L160 22L320 27L480 36L640 21L800 13L960 28L960 0L800 0L640 0L480 0L320 0L160 0L0 0Z" fill="#040000"></path></svg>