<svg id="visual" viewBox="0 0 960 300" width="960" height="300" xmlns="http://www.w3.org/2000/svg" xmlns:xlink="http://www.w3.org/1999/xlink" version="1.1"><path d="M0 49L20 46.5C40 44 80 39 120 38.5C160 38 200 42 240 41.5C280 41 320 36 360 35C400 34 440 37 480 42.5C520 48 560 56 600 56C640 56 680 48 720 41.5C760 35 800 30 840 33C880 36 920 47 940 52.5L960 58L960 0L940 0C920 0 880 0 840 0C800 0 760 0 720 0C680 0 640 0 600 0C560 0 520 0 480 0C440 0 400 0 360 0C320 0 280 0 240 0C200 0 160 0 120 0C80 0 40 0 20 0L0 0Z" fill="#f6857e"></path><path d="M0 106L20 106C40 106 80 106 120 105C160 104 200 102 240 94.5C280 87 320 74 360 71.5C400 69 440 77 480 89C520 101 560 117 600 118C640 119 680 105 720 97.5C760 90 800 89 840 89.5C880 90 920 92 940 93L960 94L960 56L940 50.5C920 45 880 34 840 31C800 28 760 33 720 39.5C680 46 640 54 600 54C560 54 520 46 480 40.5C440 35 400 32 360 33C320 34 280 39 240 39.5C200 40 160 36 120 36.5C80 37 40 42 20 44.5L0 47Z" fill="#ee6960"></path><path d="M0 127L20 126.5C40 126 80 125 120 126C160 127 200 130 240 128C280 126 320 119 360 119C400 119 440 126 480 135C520 144 560 155 600 154.5C640 154 680 142 720 133.5C760 125 800 120 840 121C880 122 920 129 940 132.5L960 136L960 92L940 91C920 90 880 88 840 87.5C800 87 760 88 720 95.5C680 103 640 117 600 116C560 115 520 99 480 87C440 75 400 67 360 69.5C320 72 280 85 240 92.5C200 100 160 102 120 103C80 104 40 104 20 104L0 104Z" fill="#e44b42"></path><path d="M0 259L20 246C40 233 80 207 120 202.5C160 198 200 215 240 212.5C280 210 320 188 360 185.5C400 183 440 200 480 210C520 220 560 223 600 221.5C640 220 680 214 720 210.5C760 207 800 206 840 210C880 214 920 223 940 227.5L960 232L960 134L940 130.5C920 127 880 120 840 119C800 118 760 123 720 131.5C680 140 640 152 600 152.5C560 153 520 142 480 133C440 124 400 117 360 117C320 117 280 124 240 126C200 128 160 125 120 124C80 123 40 124 20 124.5L0 125Z" fill="#c73f39"></path><path d="M0 301L20 301C40 301 80 301 120 301C160 301 200 301 240 301C280 301 320 301 360 301C400 301 440 301 480 301C520 301 560 301 600 301C640 301 680 301 720 301C760 301 800 301 840 301C880 301 920 301 940 301L960 301L960 230L940 225.5C920 221 880 212 840 208C800 204 760 205 720 208.5C680 212 640 218 600 219.5C560 221 520 218 480 208C440 198 400 181 360 183.5C320 186 280 208 240 210.5C200 213 160 196 120 200.5C80 205 40 231 20 244L0 257Z" fill="#aa3430"></path></svg>