<svg id="visual" viewBox="0 0 960 300" width="960" height="300" xmlns="http://www.w3.org/2000/svg" xmlns:xlink="http://www.w3.org/1999/xlink" version="1.1"><rect x="0" y="0" width="960" height="300" fill="#848886"></rect><path d="M0 181L22.8 181.2C45.7 181.3 91.3 181.7 137 187.8C182.7 194 228.3 206 274 210.7C319.7 215.3 365.3 212.7 411.2 208.7C457 204.7 503 199.3 548.8 196.8C594.7 194.3 640.3 194.7 686 196.7C731.7 198.7 777.3 202.3 823 204.5C868.7 206.7 914.3 207.3 937.2 207.7L960 208L960 301L937.2 301C914.3 301 868.7 301 823 301C777.3 301 731.7 301 686 301C640.3 301 594.7 301 548.8 301C503 301 457 301 411.2 301C365.3 301 319.7 301 274 301C228.3 301 182.7 301 137 301C91.3 301 45.7 301 22.8 301L0 301Z" fill="#000000"></path><path d="M0 224L22.8 223.3C45.7 222.7 91.3 221.3 137 221C182.7 220.7 228.3 221.3 274 223.8C319.7 226.3 365.3 230.7 411.2 228.5C457 226.3 503 217.7 548.8 213.7C594.7 209.7 640.3 210.3 686 212.8C731.7 215.3 777.3 219.7 823 224.3C868.7 229 914.3 234 937.2 236.5L960 239L960 301L937.2 301C914.3 301 868.7 301 823 301C777.3 301 731.7 301 686 301C640.3 301 594.7 301 548.8 301C503 301 457 301 411.2 301C365.3 301 319.7 301 274 301C228.3 301 182.7 301 137 301C91.3 301 45.7 301 22.8 301L0 301Z" fill="#505352"></path><path d="M0 226L22.8 227C45.7 228 91.3 230 137 229.8C182.7 229.7 228.3 227.3 274 229.7C319.7 232 365.3 239 411.2 242.7C457 246.3 503 246.7 548.8 245.8C594.7 245 640.3 243 686 238.2C731.7 233.3 777.3 225.7 823 225.3C868.7 225 914.3 232 937.2 235.5L960 239L960 301L937.2 301C914.3 301 868.7 301 823 301C777.3 301 731.7 301 686 301C640.3 301 594.7 301 548.8 301C503 301 457 301 411.2 301C365.3 301 319.7 301 274 301C228.3 301 182.7 301 137 301C91.3 301 45.7 301 22.8 301L0 301Z" fill="#848886"></path><path d="M0 267L22.8 262.8C45.7 258.7 91.3 250.3 137 249.5C182.7 248.7 228.3 255.3 274 255.7C319.7 256 365.3 250 411.2 251.2C457 252.3 503 260.7 548.8 264.3C594.7 268 640.3 267 686 265.8C731.7 264.7 777.3 263.3 823 262C868.7 260.7 914.3 259.3 937.2 258.7L960 258L960 301L937.2 301C914.3 301 868.7 301 823 301C777.3 301 731.7 301 686 301C640.3 301 594.7 301 548.8 301C503 301 457 301 411.2 301C365.3 301 319.7 301 274 301C228.3 301 182.7 301 137 301C91.3 301 45.7 301 22.8 301L0 301Z" fill="#505352"></path><path d="M0 278L22.8 277.2C45.7 276.3 91.3 274.7 137 275C182.7 275.3 228.3 277.7 274 278C319.7 278.3 365.3 276.7 411.2 277C457 277.3 503 279.7 548.8 280C594.7 280.3 640.3 278.7 686 278.5C731.7 278.3 777.3 279.7 823 278.7C868.7 277.7 914.3 274.3 937.2 272.7L960 271L960 301L937.2 301C914.3 301 868.7 301 823 301C777.3 301 731.7 301 686 301C640.3 301 594.7 301 548.8 301C503 301 457 301 411.2 301C365.3 301 319.7 301 274 301C228.3 301 182.7 301 137 301C91.3 301 45.7 301 22.8 301L0 301Z" fill="#000000"></path></svg>