<svg id="visual" viewBox="0 0 960 300" width="960" height="300" xmlns="http://www.w3.org/2000/svg" xmlns:xlink="http://www.w3.org/1999/xlink" version="1.1"><rect x="0" y="0" width="960" height="300" fill="#040000"></rect><path d="M0 65L22.8 67.2C45.7 69.3 91.3 73.7 137 75.2C182.7 76.7 228.3 75.3 274 79.5C319.7 83.7 365.3 93.3 411.2 98.8C457 104.3 503 105.7 548.8 95.8C594.7 86 640.3 65 686 65.2C731.7 65.3 777.3 86.7 823 95.5C868.7 104.3 914.3 100.7 937.2 98.8L960 97L960 0L937.2 0C914.3 0 868.7 0 823 0C777.3 0 731.7 0 686 0C640.3 0 594.7 0 548.8 0C503 0 457 0 411.2 0C365.3 0 319.7 0 274 0C228.3 0 182.7 0 137 0C91.3 0 45.7 0 22.8 0L0 0Z" fill="#e44b42" stroke-linecap="round" stroke-linejoin="miter"></path></svg>