<svg id="visual" viewBox="0 0 960 300" width="960" height="300" xmlns="http://www.w3.org/2000/svg" xmlns:xlink="http://www.w3.org/1999/xlink" version="1.1"><rect x="0" y="0" width="960" height="300" fill="#848886"></rect><path d="M0 121L160 117L320 106L480 133L640 121L800 132L960 125L960 0L800 0L640 0L480 0L320 0L160 0L0 0Z" fill="#77888f"></path><path d="M0 103L160 95L320 99L480 85L640 84L800 110L960 84L960 0L800 0L640 0L480 0L320 0L160 0L0 0Z" fill="#6d86ac"></path><path d="M0 65L160 75L320 71L480 69L640 58L800 63L960 62L960 0L800 0L640 0L480 0L320 0L160 0L0 0Z" fill="#9875b5"></path><path d="M0 44L160 54L320 59L480 48L640 51L800 60L960 35L960 0L800 0L640 0L480 0L320 0L160 0L0 0Z" fill="#d1578f"></path><path d="M0 27L160 23L320 22L480 19L640 32L800 20L960 20L960 0L800 0L640 0L480 0L320 0L160 0L0 0Z" fill="#e44b42"></path></svg>