<svg id="visual" viewBox="0 0 960 300" width="960" height="300" xmlns="http://www.w3.org/2000/svg" xmlns:xlink="http://www.w3.org/1999/xlink" version="1.1"><path d="M0 22L17.8 22C35.7 22 71.3 22 106.8 21.5C142.3 21 177.7 20 213.2 21.5C248.7 23 284.3 27 320 28C355.7 29 391.3 27 426.8 26.5C462.3 26 497.7 27 533.2 26.5C568.7 26 604.3 24 640 22.5C675.7 21 711.3 20 746.8 20C782.3 20 817.7 21 853.2 21.5C888.7 22 924.3 22 942.2 22L960 22L960 0L942.2 0C924.3 0 888.7 0 853.2 0C817.7 0 782.3 0 746.8 0C711.3 0 675.7 0 640 0C604.3 0 568.7 0 533.2 0C497.7 0 462.3 0 426.8 0C391.3 0 355.7 0 320 0C284.3 0 248.7 0 213.2 0C177.7 0 142.3 0 106.8 0C71.3 0 35.7 0 17.8 0L0 0Z" fill="#e44b42"></path><path d="M0 40L17.8 41C35.7 42 71.3 44 106.8 42.5C142.3 41 177.7 36 213.2 37C248.7 38 284.3 45 320 48C355.7 51 391.3 50 426.8 49C462.3 48 497.7 47 533.2 46.5C568.7 46 604.3 46 640 43.5C675.7 41 711.3 36 746.8 36C782.3 36 817.7 41 853.2 43C888.7 45 924.3 44 942.2 43.5L960 43L960 20L942.2 20C924.3 20 888.7 20 853.2 19.5C817.7 19 782.3 18 746.8 18C711.3 18 675.7 19 640 20.5C604.3 22 568.7 24 533.2 24.5C497.7 25 462.3 24 426.8 24.5C391.3 25 355.7 27 320 26C284.3 25 248.7 21 213.2 19.5C177.7 18 142.3 19 106.8 19.5C71.3 20 35.7 20 17.8 20L0 20Z" fill="#d16032"></path><path d="M0 58L17.8 60.5C35.7 63 71.3 68 106.8 67C142.3 66 177.7 59 213.2 58.5C248.7 58 284.3 64 320 69C355.7 74 391.3 78 426.8 77C462.3 76 497.7 70 533.2 68.5C568.7 67 604.3 70 640 70C675.7 70 711.3 67 746.8 66C782.3 65 817.7 66 853.2 69C888.7 72 924.3 77 942.2 79.5L960 82L960 41L942.2 41.5C924.3 42 888.7 43 853.2 41C817.7 39 782.3 34 746.8 34C711.3 34 675.7 39 640 41.5C604.3 44 568.7 44 533.2 44.5C497.7 45 462.3 46 426.8 47C391.3 48 355.7 49 320 46C284.3 43 248.7 36 213.2 35C177.7 34 142.3 39 106.8 40.5C71.3 42 35.7 40 17.8 39L0 38Z" fill="#bd6f2c"></path><path d="M0 76L17.8 79C35.7 82 71.3 88 106.8 88C142.3 88 177.7 82 213.2 83.5C248.7 85 284.3 94 320 99.5C355.7 105 391.3 107 426.8 104.5C462.3 102 497.7 95 533.2 93C568.7 91 604.3 94 640 92.5C675.7 91 711.3 85 746.8 83C782.3 81 817.7 83 853.2 88.5C888.7 94 924.3 103 942.2 107.5L960 112L960 80L942.2 77.5C924.3 75 888.7 70 853.2 67C817.7 64 782.3 63 746.8 64C711.3 65 675.7 68 640 68C604.3 68 568.7 65 533.2 66.5C497.7 68 462.3 74 426.8 75C391.3 76 355.7 72 320 67C284.3 62 248.7 56 213.2 56.5C177.7 57 142.3 64 106.8 65C71.3 66 35.7 61 17.8 58.5L0 56Z" fill="#a97a30"></path><path d="M0 91L17.8 94.5C35.7 98 71.3 105 106.8 106C142.3 107 177.7 102 213.2 102.5C248.7 103 284.3 109 320 113.5C355.7 118 391.3 121 426.8 119.5C462.3 118 497.7 112 533.2 109C568.7 106 604.3 106 640 104.5C675.7 103 711.3 100 746.8 100C782.3 100 817.7 103 853.2 108C888.7 113 924.3 120 942.2 123.5L960 127L960 110L942.2 105.5C924.3 101 888.7 92 853.2 86.5C817.7 81 782.3 79 746.8 81C711.3 83 675.7 89 640 90.5C604.3 92 568.7 89 533.2 91C497.7 93 462.3 100 426.8 102.5C391.3 105 355.7 103 320 97.5C284.3 92 248.7 83 213.2 81.5C177.7 80 142.3 86 106.8 86C71.3 86 35.7 80 17.8 77L0 74Z" fill="#97823d"></path><path d="M0 115L17.8 117.5C35.7 120 71.3 125 106.8 125C142.3 125 177.7 120 213.2 119C248.7 118 284.3 121 320 125.5C355.7 130 391.3 136 426.8 136.5C462.3 137 497.7 132 533.2 128C568.7 124 604.3 121 640 120C675.7 119 711.3 120 746.8 121C782.3 122 817.7 123 853.2 128C888.7 133 924.3 142 942.2 146.5L960 151L960 125L942.2 121.5C924.3 118 888.7 111 853.2 106C817.7 101 782.3 98 746.8 98C711.3 98 675.7 101 640 102.5C604.3 104 568.7 104 533.2 107C497.7 110 462.3 116 426.8 117.5C391.3 119 355.7 116 320 111.5C284.3 107 248.7 101 213.2 100.5C177.7 100 142.3 105 106.8 104C71.3 103 35.7 96 17.8 92.5L0 89Z" fill="#88874e"></path><path d="M0 157L17.8 160C35.7 163 71.3 169 106.8 170.5C142.3 172 177.7 169 213.2 169C248.7 169 284.3 172 320 173C355.7 174 391.3 173 426.8 178.5C462.3 184 497.7 196 533.2 201.5C568.7 207 604.3 206 640 202C675.7 198 711.3 191 746.8 189.5C782.3 188 817.7 192 853.2 195C888.7 198 924.3 200 942.2 201L960 202L960 149L942.2 144.5C924.3 140 888.7 131 853.2 126C817.7 121 782.3 120 746.8 119C711.3 118 675.7 117 640 118C604.3 119 568.7 122 533.2 126C497.7 130 462.3 135 426.8 134.5C391.3 134 355.7 128 320 123.5C284.3 119 248.7 116 213.2 117C177.7 118 142.3 123 106.8 123C71.3 123 35.7 118 17.8 115.5L0 113Z" fill="#7d8a60"></path><path d="M0 172L17.8 174.5C35.7 177 71.3 182 106.8 183C142.3 184 177.7 181 213.2 182C248.7 183 284.3 188 320 190C355.7 192 391.3 191 426.8 196C462.3 201 497.7 212 533.2 216C568.7 220 604.3 217 640 212C675.7 207 711.3 200 746.8 198.5C782.3 197 817.7 201 853.2 204C888.7 207 924.3 209 942.2 210L960 211L960 200L942.2 199C924.3 198 888.7 196 853.2 193C817.7 190 782.3 186 746.8 187.5C711.3 189 675.7 196 640 200C604.3 204 568.7 205 533.2 199.5C497.7 194 462.3 182 426.8 176.5C391.3 171 355.7 172 320 171C284.3 170 248.7 167 213.2 167C177.7 167 142.3 170 106.8 168.5C71.3 167 35.7 161 17.8 158L0 155Z" fill="#798b70"></path><path d="M0 265L17.8 267C35.7 269 71.3 273 106.8 273.5C142.3 274 177.7 271 213.2 270.5C248.7 270 284.3 272 320 270.5C355.7 269 391.3 264 426.8 264.5C462.3 265 497.7 271 533.2 274C568.7 277 604.3 277 640 274C675.7 271 711.3 265 746.8 260.5C782.3 256 817.7 253 853.2 252.5C888.7 252 924.3 254 942.2 255L960 256L960 209L942.2 208C924.3 207 888.7 205 853.2 202C817.7 199 782.3 195 746.8 196.5C711.3 198 675.7 205 640 210C604.3 215 568.7 218 533.2 214C497.7 210 462.3 199 426.8 194C391.3 189 355.7 190 320 188C284.3 186 248.7 181 213.2 180C177.7 179 142.3 182 106.8 181C71.3 180 35.7 175 17.8 172.5L0 170Z" fill="#7b8a7e"></path><path d="M0 301L17.8 301C35.7 301 71.3 301 106.8 301C142.3 301 177.7 301 213.2 301C248.7 301 284.3 301 320 301C355.7 301 391.3 301 426.8 301C462.3 301 497.7 301 533.2 301C568.7 301 604.3 301 640 301C675.7 301 711.3 301 746.8 301C782.3 301 817.7 301 853.2 301C888.7 301 924.3 301 942.2 301L960 301L960 254L942.2 253C924.3 252 888.7 250 853.2 250.5C817.7 251 782.3 254 746.8 258.5C711.3 263 675.7 269 640 272C604.3 275 568.7 275 533.2 272C497.7 269 462.3 263 426.8 262.5C391.3 262 355.7 267 320 268.5C284.3 270 248.7 268 213.2 268.5C177.7 269 142.3 272 106.8 271.5C71.3 271 35.7 267 17.8 265L0 263Z" fill="#848886"></path></svg>