<svg id="visual" viewBox="0 0 960 300" width="960" height="300" xmlns="http://www.w3.org/2000/svg" xmlns:xlink="http://www.w3.org/1999/xlink" version="1.1"><rect x="0" y="0" width="960" height="300" fill="#e44b42"></rect><path d="M0 255L22.8 245C45.7 235 91.3 215 137 205C182.7 195 228.3 195 274 204.8C319.7 214.7 365.3 234.3 411.2 237.2C457 240 503 226 548.8 217.8C594.7 209.7 640.3 207.3 686 215.5C731.7 223.7 777.3 242.3 823 241.8C868.7 241.3 914.3 221.7 937.2 211.8L960 202L960 301L937.2 301C914.3 301 868.7 301 823 301C777.3 301 731.7 301 686 301C640.3 301 594.7 301 548.8 301C503 301 457 301 411.2 301C365.3 301 319.7 301 274 301C228.3 301 182.7 301 137 301C91.3 301 45.7 301 22.8 301L0 301Z" fill="#848886" stroke-linecap="round" stroke-linejoin="miter"></path></svg>